<svg viewBox="0 0 14 14" fill="currentColor" xmlns="http://www.w3.org/2000/svg">
  <path d="M13.0245 11.3015C13.0245 10.2471 12.7087 9.25214 12.1688 8.53325C11.6307 7.81693 10.9289 7.44811 10.2305 7.44811H3.7681C3.06986 7.44819 2.36849 7.81701 1.83045 8.53325C1.29043 9.25215 0.974715 10.247 0.974715 11.3015C0.974738 11.7855 1.12003 12.2333 1.357 12.5488C1.59212 12.8618 1.88308 13.0039 2.15292 13.0039H11.8463C12.1161 13.0039 12.4066 12.8618 12.6416 12.5488C12.8787 12.2333 13.0245 11.7856 13.0245 11.3015ZM13.8996 11.3015C13.8996 11.9581 13.7044 12.6044 13.3356 13.0955C12.9648 13.5891 12.4334 13.9 11.8463 13.9H2.15292C1.56586 13.9 1.03448 13.5891 0.663642 13.0955C0.294769 12.6044 0.0996324 11.9581 0.0996094 11.3015C0.0996094 10.0745 0.464662 8.881 1.13652 7.9866C1.81029 7.08966 2.75259 6.55208 3.7681 6.552H10.2305C11.2461 6.552 12.1883 7.08967 12.8621 7.9866C13.534 8.881 13.8996 10.0745 13.8996 11.3015Z" />
  <path d="M8.98525 3.77429C8.98525 2.97382 8.74125 2.26514 8.36652 1.76621C7.99214 1.26783 7.50497 0.996204 6.99974 0.99611C6.49444 0.99611 6.0074 1.26778 5.63296 1.76621C5.25815 2.26515 5.01366 2.97372 5.01366 3.77429C5.01371 4.57476 5.25819 5.28289 5.63296 5.78179C6.0074 6.28025 6.49442 6.55188 6.99974 6.55188C7.50497 6.55179 7.99214 6.28017 8.36652 5.78179C8.74118 5.2829 8.9852 4.57462 8.98525 3.77429ZM9.86035 3.77429C9.86031 4.7553 9.56212 5.65986 9.05988 6.32844C8.5573 6.99747 7.83268 7.4479 6.99974 7.448C6.16668 7.448 5.44167 6.99755 4.93903 6.32844C4.43679 5.65986 4.1386 4.7553 4.13856 3.77429C4.13856 2.79319 4.43675 1.88819 4.93903 1.21955C5.44167 0.550486 6.16671 0.0999985 6.99974 0.0999985C7.83265 0.100093 8.5573 0.550568 9.05988 1.21955C9.56216 1.88819 9.86035 2.79319 9.86035 3.77429Z" />
</svg>
