<svg viewBox="0 0 14 14" fill="currentColor" xmlns="http://www.w3.org/2000/svg">
<path d="M8.81614 0.113051C8.84378 0.120041 8.87052 0.130638 8.89622 0.143324L8.96849 0.188246C8.99117 0.205785 9.01214 0.225881 9.03099 0.247816C9.04973 0.269651 9.06678 0.292967 9.08079 0.318129C9.09491 0.343277 9.10596 0.370545 9.11497 0.398207C9.13292 0.453419 9.13985 0.512051 9.13548 0.570082C9.13106 0.628089 9.11561 0.68538 9.08958 0.737074L9.04368 0.80934C9.02598 0.831964 9.00595 0.853181 8.98411 0.87184L8.9138 0.920668C8.90124 0.927602 8.88712 0.930999 8.87376 0.936293L8.8347 0.953871C8.3729 1.11238 8.02831 1.50912 7.79075 2.06715C7.78251 2.08651 7.77334 2.10601 7.76536 2.12575L7.73802 2.19997C7.64515 2.44407 7.57304 2.70499 7.52317 2.97047C7.48759 3.15937 7.46205 3.35015 7.44602 3.53786C7.44481 3.55218 7.4442 3.56654 7.4431 3.58082L7.42552 3.95094L8.8347 3.70973C9.00881 3.67996 9.18447 3.66366 9.36009 3.66188C9.47744 3.66075 9.5948 3.66619 9.71165 3.6775C9.88639 3.69435 10.0602 3.72473 10.2312 3.7693C10.6305 3.8734 11.0078 4.05086 11.3445 4.29274C11.3926 4.32733 11.4396 4.36393 11.4861 4.40114C11.5324 4.43829 11.5785 4.4759 11.6228 4.51539C11.9332 4.79179 12.1921 5.12466 12.3874 5.49684C12.4843 5.68144 12.5638 5.87466 12.6267 6.07301C12.6543 6.16025 12.6791 6.24843 12.6999 6.33766C12.7136 6.39625 12.7263 6.45512 12.737 6.51442C12.7478 6.57366 12.7567 6.63329 12.7644 6.69313C12.7721 6.75274 12.7782 6.81274 12.7829 6.87282L12.7878 6.93727C12.886 8.1944 12.6698 9.45358 12.1638 10.5964C12.0915 10.7597 12.0125 10.9207 11.9284 11.0789L11.6238 11.6531L11.5964 11.697L10.7458 12.9197L10.5915 13.1179C10.5409 13.1761 10.4863 13.2304 10.4304 13.283C10.4173 13.2953 10.4037 13.3071 10.3904 13.3191C10.346 13.3589 10.2999 13.3962 10.2527 13.4324C10.237 13.4444 10.2218 13.4569 10.2058 13.4685C10.1445 13.513 10.0819 13.5563 10.0163 13.5945L9.79466 13.7088C9.72244 13.7408 9.64796 13.7667 9.57298 13.7908C9.56199 13.7943 9.55081 13.7972 9.53977 13.8006C9.47918 13.819 9.41813 13.8352 9.35618 13.8484C9.33832 13.8522 9.32043 13.8557 9.30247 13.8591C9.22786 13.8732 9.15278 13.8859 9.07688 13.8923C9.00203 13.8987 8.92706 13.8994 8.85227 13.8982C8.83074 13.8979 8.80932 13.8963 8.78782 13.8953C8.73027 13.8927 8.67308 13.8877 8.61595 13.8806C8.5987 13.8785 8.58138 13.8773 8.56419 13.8748C8.4888 13.8637 8.41362 13.8506 8.33958 13.8318L8.10325 13.7576C8.04657 13.7363 7.99194 13.7101 7.93724 13.6843C7.69158 13.5686 7.46595 13.4114 7.27415 13.2146C7.23816 13.1777 7.19519 13.1477 7.14817 13.1277C7.10143 13.1079 7.05128 13.0975 7.00071 13.0974C6.97552 13.0974 6.95012 13.1003 6.92552 13.1052C6.90052 13.1103 6.87581 13.1177 6.85227 13.1277C6.80532 13.1477 6.76224 13.1777 6.7263 13.2146L6.54173 13.3845C6.48404 13.4321 6.4229 13.4748 6.36106 13.5164C6.34245 13.5289 6.32339 13.5406 6.30442 13.5525C6.25756 13.582 6.20973 13.6095 6.16087 13.6355C6.1417 13.6457 6.12271 13.6561 6.10325 13.6658C6.0362 13.699 5.96834 13.7312 5.89817 13.7576L5.66087 13.8318C5.50071 13.8725 5.33655 13.8957 5.17161 13.9002L4.92356 13.8923C4.8411 13.8853 4.75933 13.8732 4.67845 13.8572C4.43521 13.8089 4.20042 13.7206 3.98411 13.5945C3.91828 13.5561 3.85523 13.5132 3.79368 13.4685C3.77771 13.4569 3.76247 13.4444 3.74681 13.4324C3.69979 13.3964 3.65421 13.3587 3.61009 13.3191C3.59653 13.3069 3.58235 13.2955 3.56907 13.283C3.51333 13.2305 3.45937 13.1759 3.40892 13.1179L3.25462 12.9197L2.40403 11.697C2.39388 11.6831 2.3846 11.6681 2.37669 11.6531L2.07103 11.0789C2.02902 10.9998 1.98803 10.92 1.94895 10.8396C1.8707 10.6787 1.79856 10.5151 1.73216 10.3494C1.66583 10.1839 1.60585 10.016 1.55149 9.84645C1.52429 9.7616 1.49853 9.67632 1.47435 9.59059C1.45021 9.50502 1.42709 9.41915 1.40599 9.33278C1.21578 8.55442 1.1495 7.74544 1.21263 6.93727L1.21751 6.87282C1.22425 6.78611 1.23386 6.69951 1.24681 6.61403C1.25381 6.56775 1.26438 6.52218 1.27317 6.47633C1.28144 6.43326 1.28874 6.39007 1.29856 6.34743C1.3052 6.31863 1.31271 6.29008 1.32005 6.26149C1.33378 6.20801 1.3488 6.15498 1.36497 6.10231C1.37724 6.06231 1.39037 6.02266 1.40403 5.98317C1.41823 5.94216 1.43328 5.90152 1.44895 5.8611C1.46459 5.82076 1.4807 5.78069 1.49778 5.74098C1.5145 5.70216 1.53243 5.66393 1.55052 5.62575C1.56891 5.58691 1.58639 5.54767 1.60618 5.50954C1.63218 5.45947 1.6608 5.41085 1.68919 5.36207C1.70334 5.33775 1.71644 5.31282 1.73118 5.28883C1.77687 5.2145 1.82546 5.1419 1.87669 5.07106L1.89036 5.05348C1.94058 4.98495 1.99228 4.91719 2.04759 4.85231C2.46849 4.35862 3.01529 3.99792 3.62376 3.80934C3.71046 3.78246 3.79841 3.75881 3.88743 3.73903L3.85813 3.70973C3.79106 3.64069 3.72774 3.56821 3.66673 3.49391C3.66041 3.48621 3.65443 3.47823 3.64817 3.47047C3.59603 3.40585 3.54617 3.33948 3.49876 3.27125C3.48393 3.24989 3.46917 3.22849 3.45481 3.2068C3.40635 3.13363 3.36004 3.05896 3.31712 2.98219C3.31265 2.97419 3.30883 2.96582 3.30442 2.95778C3.22998 2.82213 3.16351 2.68121 3.10716 2.5359C3.07477 2.45237 3.04617 2.36756 3.02024 2.282C3.01325 2.25892 3.00626 2.23586 2.99974 2.21266C2.97743 2.13326 2.95789 2.05315 2.94114 1.97243C2.93669 1.95098 2.9325 1.9295 2.92845 1.90797C2.91188 1.81998 2.89833 1.73142 2.88841 1.64235C2.88667 1.62677 2.88603 1.61108 2.8845 1.59547C2.86999 1.44749 2.86385 1.29852 2.8679 1.14918C2.88065 0.675738 3.22697 0.29004 3.67649 0.232191L3.76731 0.225356C3.82495 0.223705 3.88265 0.223022 3.94017 0.224379C4.0559 0.227086 4.1713 0.236001 4.28587 0.250746C4.34272 0.258076 4.39939 0.266851 4.45579 0.277113C4.68245 0.318309 4.90487 0.383665 5.11985 0.471449C5.28104 0.537266 5.43684 0.615091 5.58567 0.704848C5.83376 0.854331 6.06293 1.03615 6.26731 1.24586C6.3742 1.35538 6.47262 1.47271 6.56419 1.59547C6.67931 1.74986 6.7831 1.91332 6.87181 2.08571C6.90422 1.98613 6.9399 1.88673 6.97923 1.78981C6.99948 1.73999 7.02339 1.69159 7.04563 1.64235C7.08962 1.54501 7.13703 1.44898 7.18919 1.35524C7.49158 0.811521 7.93379 0.342769 8.56614 0.126723C8.61943 0.106735 8.67646 0.0975218 8.73313 0.100356C8.7612 0.101789 8.78903 0.106025 8.81614 0.113051ZM4.42747 5.38356C4.32663 5.33179 4.20926 5.32357 4.10228 5.36012C4.05187 5.37742 4.00131 5.39677 3.95091 5.41872C3.84959 5.46284 3.74882 5.51659 3.6511 5.5818C3.50488 5.67936 3.36589 5.80257 3.24095 5.95582C3.15767 6.058 3.08038 6.17374 3.01243 6.30446L2.97337 6.38844C2.73636 6.89358 2.64567 7.56542 2.75267 8.44411C2.76901 8.55657 2.82757 8.65847 2.91575 8.72731C3.004 8.79603 3.11539 8.82718 3.22532 8.81325C3.33542 8.79913 3.43642 8.74112 3.5056 8.65211C3.52293 8.6298 3.5379 8.6058 3.55052 8.58082C3.58834 8.50622 3.60469 8.42148 3.59642 8.33668C3.59396 8.31647 3.59277 8.29597 3.59056 8.27614C3.53692 7.79462 3.55506 7.42639 3.61399 7.14528C3.62612 7.08729 3.63985 7.03298 3.65501 6.98219C3.67035 6.93088 3.68699 6.88306 3.70481 6.83864C3.72262 6.79421 3.74178 6.75263 3.76145 6.71461C3.7825 6.67265 3.80756 6.63307 3.83372 6.5945C3.84033 6.58478 3.84634 6.57468 3.85325 6.5652C3.88011 6.52829 3.90884 6.4928 3.94017 6.45973L4.01536 6.38844C4.06764 6.34319 4.12372 6.303 4.18333 6.2693C4.24282 6.23561 4.30575 6.20842 4.37083 6.18727C4.39733 6.17822 4.42307 6.16607 4.447 6.15211C4.49542 6.12384 4.53776 6.08587 4.572 6.04079C4.58904 6.01833 4.60431 5.99434 4.61692 5.96852C4.64212 5.91686 4.65691 5.86098 4.66087 5.80446C4.6634 5.76923 4.65991 5.73403 4.65403 5.69899C4.65043 5.67769 4.64709 5.65628 4.64036 5.63551C4.61373 5.55346 4.56421 5.48192 4.49876 5.42946C4.47674 5.41182 4.45281 5.39659 4.42747 5.38356Z"/>
</svg>
