<svg viewBox="0 0 24 24" fill="currentColor" xmlns="http://www.w3.org/2000/svg">
<path d="M-0.000529881 11.997C-0.00347074 12.5938 0.198741 13.1671 0.561618 13.5908C0.924496 14.0146 1.41831 14.254 1.93444 14.2566L17.3472 14.3325L12.2065 20.2173C11.8606 20.6421 11.6707 21.2053 11.6767 21.7883C11.6827 22.3712 11.8842 22.9284 12.2388 23.3423C12.5933 23.7563 13.0731 23.9948 13.5773 24.0076C14.0814 24.0204 14.5704 23.8064 14.9412 23.4108L23.4222 13.7025C23.7887 13.2824 23.9962 12.7115 23.9992 12.1153C24.0021 11.5191 23.8002 10.9462 23.4379 10.5225L15.053 0.731077C14.8759 0.509142 14.662 0.330779 14.4238 0.206628C14.1857 0.0824768 13.9284 0.015082 13.6671 0.00846395C13.4058 0.00184591 13.146 0.0561396 12.9031 0.168107C12.6602 0.280075 12.4393 0.447421 12.2534 0.660164C12.0676 0.872907 11.9207 1.12669 11.8214 1.40637C11.7222 1.68605 11.6726 1.98589 11.6757 2.28802C11.6788 2.59015 11.7346 2.88837 11.8396 3.16488C11.9446 3.4414 12.0967 3.69056 12.2869 3.89748L17.3694 9.8326L1.95662 9.75664C0.882393 9.75135 0.00559099 10.755 -0.000529881 11.997Z" />
</svg>
