<svg viewBox="0 0 150 150" fill="currentColor" xmlns="http://www.w3.org/2000/svg">
  <path d="M1 97V54H6.20312V97H1ZM8.76335 96.9694V54H11.4062V96.9694H8.76335ZM16.6094 96.9694V54H19.1696V96.9694H16.6094ZM29.5759 96.9694V54H32.1361V96.9694H29.5759ZM39.9821 96.9694V54H45.1026V96.9694H39.9821ZM52.9486 96.9694V54H55.5088V96.9694H52.9486ZM58.1517 96.9694V54H60.7119V96.9694H58.1517ZM63.3548 96.9694V54H65.9151V96.9694H63.3548ZM73.6787 96.9694V54H78.8818V96.9694H73.6787ZM86.6452 96.9694V54H91.8483V96.9694H86.6452ZM97.0511 96.9694V54H102.255V96.9694H97.0511ZM107.458 96.9694V54H112.661V96.9694H107.458ZM115.221 96.9694V54H120.424V96.9694H115.221ZM128.27 96.9694V54H136.034V96.9694H128.27ZM138.594 96.9694V54H141.237V96.9694H138.594ZM143.797 97V54H149V97H143.797Z"/>
</svg>
