<svg viewBox="0 0 20 20" fill="none" xmlns="http://www.w3.org/2000/svg">
<path d="M13.3335 4.99967C13.3335 5.92015 12.5873 6.66634 11.6668 6.66634C10.7464 6.66634 10.0002 5.92015 10.0002 4.99967M13.3335 4.99967C13.3335 4.0792 12.5873 3.33301 11.6668 3.33301C10.7464 3.33301 10.0002 4.0792 10.0002 4.99967M13.3335 4.99967H16.6668M10.0002 4.99967H3.3335M8.3335 9.99967C8.3335 10.9201 7.5873 11.6663 6.66683 11.6663C5.74635 11.6663 5.00016 10.9201 5.00016 9.99967M8.3335 9.99967C8.3335 9.0792 7.5873 8.33301 6.66683 8.33301C5.74635 8.33301 5.00016 9.0792 5.00016 9.99967M8.3335 9.99967H16.6668M5.00016 9.99967H3.3335M15.8335 14.9997C15.8335 15.9201 15.0873 16.6663 14.1668 16.6663C13.2464 16.6663 12.5002 15.9201 12.5002 14.9997M15.8335 14.9997C15.8335 14.0792 15.0873 13.333 14.1668 13.333C13.2464 13.333 12.5002 14.0792 12.5002 14.9997M15.8335 14.9997H16.6668M12.5002 14.9997H3.3335" stroke="currentColor" stroke-width="1.5" stroke-linecap="round" stroke-linejoin="round"/>
</svg>
