<svg viewBox="0 0 24 24" fill="currentColor" xmlns="http://www.w3.org/2000/svg">
<path d="M13.615 19.6385L14.418 12.4175L20.418 12.4175C20.9484 12.4175 21.4571 12.2068 21.8322 11.8317C22.2073 11.4566 22.418 10.9479 22.418 10.4175C22.418 9.88705 22.2073 9.37835 21.8322 9.00327C21.4571 8.6282 20.9484 8.41749 20.418 8.41749L8.41797 8.41749L9.62997 5.38649C9.73115 5.13342 9.77954 4.86235 9.77217 4.5899C9.7648 4.31746 9.70183 4.04939 9.58711 3.80217C9.47239 3.55494 9.30836 3.33377 9.10507 3.15223C8.90179 2.97069 8.66354 2.83262 8.40497 2.74649L8.06497 2.63349C7.87416 2.57004 7.66866 2.56558 7.47528 2.62071C7.28191 2.67583 7.10964 2.78797 6.98097 2.94249L2.64897 8.13949C2.49997 8.31849 2.41797 8.54549 2.41797 8.77949L2.41797 19.4175C2.41797 19.9479 2.62868 20.4566 3.00376 20.8317C3.37883 21.2068 3.88754 21.4175 4.41797 21.4175L11.628 21.4175C12.12 21.4173 12.5947 21.2357 12.9613 20.9075C13.3279 20.5793 13.5606 20.1275 13.615 19.6385Z"/>
</svg>
