<svg viewBox="0 0 32 32" fill="currentColor" xmlns="http://www.w3.org/2000/svg">
<path d="M5.95333 7.42851C7.2597 6.12185 8.98993 5.32491 10.832 5.18139C12.6742 5.03786 14.5069 5.5572 15.9999 6.64576C17.5774 5.50448 19.5265 4.99852 21.4598 5.22846C23.3932 5.4584 25.1693 6.40739 26.4351 7.88681C27.7008 9.36624 28.3636 11.2678 28.2916 13.2134C28.2196 15.1591 27.4181 17.0065 26.0465 18.3883L18.7395 25.6953C18.0129 26.4217 17.0274 26.8298 15.9999 26.8298C14.9724 26.8298 13.987 26.4217 13.2603 25.6953L5.95333 18.3896C4.50004 16.9362 3.68359 14.965 3.68359 12.9097C3.68359 10.8544 4.50004 8.88191 5.95333 7.42851Z" />
</svg>
