<svg viewBox="0 0 14 14" fill="currentColor" xmlns="http://www.w3.org/2000/svg">
  <path d="M7.48728 0.302023L13.6961 6.51209C14.1307 6.94679 13.8231 7.68993 13.2084 7.68993H12.5185V11.83C12.5185 12.379 12.3005 12.9055 11.9123 13.2937C11.5242 13.6819 10.9978 13.9 10.4489 13.9H9.75902V9.06995C9.75905 8.54195 9.55736 8.03389 9.1952 7.64973C8.83305 7.26557 8.33781 7.03435 7.81083 7.00338L7.68941 6.99993H6.30966C5.76077 6.99993 5.23435 7.21802 4.84622 7.60622C4.4581 7.99442 4.24005 8.52094 4.24005 9.06995V13.9H3.55018C3.00128 13.9 2.47486 13.6819 2.08674 13.2937C1.69861 12.9055 1.48056 12.379 1.48056 11.83V7.68993H0.790687C0.176701 7.68993 -0.131672 6.94679 0.302948 6.51209L6.5118 0.302023C6.64117 0.172667 6.81661 0.0999985 6.99954 0.0999985C7.18247 0.0999985 7.35791 0.172667 7.48728 0.302023ZM7.68941 8.37994C7.87237 8.37994 8.04785 8.45264 8.17722 8.58204C8.3066 8.71144 8.37928 8.88694 8.37928 9.06995V13.9H5.61979V9.06995C5.61981 8.90094 5.68185 8.73782 5.79413 8.61152C5.90642 8.48523 6.06114 8.40454 6.22895 8.38477L6.30966 8.37994H7.68941Z"/>
</svg>
