<svg viewBox="0 0 24 24" fill="none" xmlns="http://www.w3.org/2000/svg">
  <path d="M21.7628 8.36169L17.2819 7.95434L16.5251 7.87025C16.0471 7.81714 15.6329 7.51528 15.4359 7.07658L13.2575 2.2247C12.7774 1.1554 11.2593 1.15541 10.7792 2.22471L8.53157 7.2307C8.37836 7.57193 8.05048 7.80176 7.67745 7.8294L2.26 8.23069C1.07124 8.31874 0.564313 9.78594 1.44516 10.5891L3.70889 12.6531C4.45525 13.3336 5.46581 13.6465 6.46614 13.5069L11.2558 12.8386C11.4432 12.8125 11.5265 13.0662 11.36 13.1561L8.1737 14.8785C6.73846 15.6543 5.7278 17.034 5.42096 18.6364L4.98735 20.9008C4.76077 22.084 6.07248 22.9547 7.07492 22.2864L11.4532 19.3676C11.7954 19.1394 12.2412 19.1394 12.5834 19.3676L17.0502 22.3454C18.0396 23.005 19.339 22.1649 19.1435 20.9919L18.3385 16.1617C18.2087 15.3827 18.4742 14.59 19.0472 14.0465L22.5747 10.6999C23.4223 9.89568 22.9264 8.46748 21.7628 8.36169Z" fill="url(#paint0_linear_1153_2047)" />
  <path d="M10.3232 2.02039C10.9801 0.557482 13.0571 0.557477 13.7139 2.02039L15.8916 6.87195C16.016 7.14909 16.2782 7.33929 16.5801 7.37292L17.3262 7.45593H17.3271L21.8076 7.86414C23.3995 8.00885 24.0784 9.96212 22.9189 11.0624L19.3916 14.4091C18.9392 14.8383 18.7295 15.4648 18.832 16.08L19.6367 20.91C19.9039 22.5146 18.126 23.664 16.7725 22.7616L12.3057 19.7841C12.1314 19.6679 11.9047 19.6679 11.7305 19.7841L7.35254 22.702C5.9811 23.6163 4.1861 22.4254 4.49609 20.8065L4.92969 18.5419C5.26484 16.7923 6.36845 15.2855 11.33555 13.1384L9.51074 13.5858L6.53516 14.0018C5.38755 14.162 4.22832 13.803 3.37207 13.0223L1.1084 10.9589C-0.0965792 9.86021 0.596625 7.85309 2.22266 7.7323L7.64062 7.33093C7.8304 7.31684 7.99712 7.19977 8.0752 7.02625L10.3232 2.02039Z" stroke="#7E3E03"/>
  <defs>
    <linearGradient id="paint0_linear_1153_2047" x1="20.1686" y1="5.57725" x2="5.39669" y2="20.3492" gradientUnits="userSpaceOnUse">
      <stop stop-color="#FFFF2B"/>
      <stop offset="0.380678" stop-color="#FEA816"/>
      <stop offset="1" stop-color="#FEA816"/>
    </linearGradient>
  </defs>
</svg>
