<svg viewBox="0 0 20 20" fill="none" xmlns="http://www.w3.org/2000/svg">
<path d="M7.08325 7.91683C7.54349 7.91683 7.91659 7.54373 7.91659 7.0835C7.91659 6.62326 7.54349 6.25016 7.08325 6.25016C6.62301 6.25016 6.24992 6.62326 6.24992 7.0835C6.24992 7.54373 6.62301 7.91683 7.08325 7.91683Z" stroke="currentColor" stroke-width="1.6" stroke-linecap="round" stroke-linejoin="round"/>
<path d="M3.33325 5.8335V9.04933C3.33325 9.49683 3.51075 9.926 3.82742 10.2427L10.5908 17.006C10.7475 17.1627 10.9335 17.287 11.1382 17.3719C11.343 17.4567 11.5625 17.5003 11.7841 17.5003C12.0057 17.5003 12.2252 17.4567 12.4299 17.3719C12.6347 17.287 12.8207 17.1627 12.9774 17.006L17.0058 12.9777C17.1625 12.821 17.2868 12.6349 17.3716 12.4302C17.4564 12.2254 17.5001 12.006 17.5001 11.7843C17.5001 11.5627 17.4564 11.3432 17.3716 11.1385C17.2868 10.9337 17.1625 10.7477 17.0058 10.591L10.2416 3.82766C9.92529 3.51141 9.49637 3.33367 9.04909 3.3335H5.83325C5.17021 3.3335 4.53433 3.59689 4.06549 4.06573C3.59664 4.53457 3.33325 5.17045 3.33325 5.8335Z" stroke="currentColor" stroke-width="1.6" stroke-linecap="round" stroke-linejoin="round"/>
</svg>
