<svg viewBox="0 0 16 16" fill="currentColor" xmlns="http://www.w3.org/2000/svg">
<path d="M5.79246 1.636C5.60499 1.82353 5.49968 2.07784 5.49968 2.343C5.49968 2.60817 5.60499 2.86247 5.79246 3.05L10.7425 8L5.79246 12.95C5.61031 13.1386 5.50951 13.3912 5.51179 13.6534C5.51407 13.9156 5.61924 14.1664 5.80464 14.3518C5.99005 14.5372 6.24087 14.6424 6.50306 14.6447C6.76526 14.647 7.01786 14.5462 7.20646 14.364L12.8635 8.707C13.0509 8.51947 13.1562 8.26517 13.1562 8C13.1562 7.73484 13.0509 7.48053 12.8635 7.293L7.20646 1.636C7.01894 1.44853 6.76463 1.34322 6.49946 1.34322C6.2343 1.34322 5.97999 1.44853 5.79246 1.636Z" />
</svg>
