<svg viewBox="2 0 14 14" fill="currentColor" xmlns="http://www.w3.org/2000/svg">
<path d="M12.1667 2.91663C12.3214 2.91663 12.4697 2.97808 12.5791 3.08748C12.6885 3.19688 12.75 3.34525 12.75 3.49996C12.75 3.65467 12.6885 3.80304 12.5791 3.91244C12.4697 4.02183 12.3214 4.08329 12.1667 4.08329H11.5833L11.5816 4.12471L11.0373 11.7495C11.0164 12.0438 10.8847 12.3193 10.6687 12.5204C10.4528 12.7215 10.1687 12.8333 9.87358 12.8333H5.12583C4.83075 12.8333 4.54662 12.7215 4.33068 12.5204C4.11474 12.3193 3.98303 12.0438 3.96208 11.7495L3.41783 4.12529L3.41667 4.08329H2.83333C2.67862 4.08329 2.53025 4.02183 2.42085 3.91244C2.31146 3.80304 2.25 3.65467 2.25 3.49996C2.25 3.34525 2.31146 3.19688 2.42085 3.08748C2.53025 2.97808 2.67862 2.91663 2.83333 2.91663H12.1667ZM8.66667 1.16663C8.82138 1.16663 8.96975 1.22808 9.07915 1.33748C9.18854 1.44688 9.25 1.59525 9.25 1.74996C9.25 1.90467 9.18854 2.05304 9.07915 2.16244C8.96975 2.27183 8.82138 2.33329 8.66667 2.33329H6.33333C6.17862 2.33329 6.03025 2.27183 5.92085 2.16244C5.81146 2.05304 5.75 1.90467 5.75 1.74996C5.75 1.59525 5.81146 1.44688 5.92085 1.33748C6.03025 1.22808 6.17862 1.16663 6.33333 1.16663H8.66667Z"/>
</svg>
