<svg viewBox="-5 -6 30 30" fill="none" xmlns="http://www.w3.org/2000/svg">
<path d="M4.80005 6.80005L9.80005 0.800049L14.8 6.80005M18.8 6.80005L16.8 14.8C16.7065 15.3732 16.4552 15.8873 16.0898 16.2527C15.7243 16.6182 15.2679 16.8118 14.8 16.8H4.80005C4.33216 16.8118 3.87577 16.6182 3.51033 16.2527C3.1449 15.8873 2.89355 15.3732 2.80005 14.8L0.800049 6.80005H18.8ZM11.8 11.8C11.8 12.9046 10.9046 13.8 9.80005 13.8C8.69548 13.8 7.80005 12.9046 7.80005 11.8C7.80005 10.6955 8.69548 9.80005 9.80005 9.80005C10.9046 9.80005 11.8 10.6955 11.8 11.8Z" stroke="currentColor" stroke-width="1.6" stroke-linecap="round" stroke-linejoin="round"/>
</svg>
