<svg width="15" height="17" viewBox="-4.5 -3.5 24 24" fill="none" xmlns="http://www.w3.org/2000/svg">
<path d="M2.41667 12.4167C1.49619 12.4167 0.75 13.1629 0.75 14.0833C0.75 15.0038 1.49619 15.75 2.41667 15.75C3.33714 15.75 4.08333 15.0038 4.08333 14.0833C4.08333 13.1629 3.33714 12.4167 2.41667 12.4167ZM2.41667 12.4167H11.5833M2.41667 12.4167V0.75H0.75M11.5833 12.4167C10.6629 12.4167 9.91667 13.1629 9.91667 14.0833C9.91667 15.0038 10.6629 15.75 11.5833 15.75C12.5038 15.75 13.25 15.0038 13.25 14.0833C13.25 13.1629 12.5038 12.4167 11.5833 12.4167ZM2.41667 2.41667L14.0833 3.25L13.25 9.08333H2.41667" stroke="currentColor" stroke-width="1.5" stroke-linecap="round" stroke-linejoin="round"/>
</svg>
