<svg viewBox="0 0 14 14" fill="currentColor" xmlns="http://www.w3.org/2000/svg">
<path d="M7.01001 8.14208L11.6192 12.7513C11.7729 12.8997 11.9787 12.9818 12.1923 12.9799C12.4059 12.9781 12.6103 12.8924 12.7614 12.7413C12.9124 12.5903 12.9981 12.3859 13 12.1723C13.0018 11.9586 12.9197 11.7528 12.7713 11.5992L8.1621 6.98999L12.7713 2.38081C12.9197 2.22714 13.0018 2.02133 13 1.80769C12.9981 1.59406 12.9124 1.38971 12.7614 1.23864C12.6103 1.08758 12.4059 1.00189 12.1923 1.00003C11.9787 0.998174 11.7729 1.0803 11.6192 1.22872L7.01001 5.8379L2.40083 1.22872C2.24647 1.08397 2.04185 1.00495 1.83027 1.00839C1.61869 1.01182 1.41674 1.09744 1.26716 1.24713C1.11758 1.39681 1.03211 1.59882 1.02882 1.8104C1.02554 2.02199 1.1047 2.22655 1.24956 2.38081L5.85792 6.98999L1.24874 11.5992C1.17092 11.6743 1.10885 11.7642 1.06615 11.8636C1.02345 11.963 1.00097 12.07 1.00003 12.1781C0.999091 12.2863 1.01971 12.3936 1.06067 12.4938C1.10164 12.5939 1.16214 12.6849 1.23864 12.7614C1.31514 12.8379 1.40611 12.8984 1.50625 12.9393C1.60638 12.9803 1.71367 13.0009 1.82185 13C1.93004 12.999 2.03695 12.9766 2.13636 12.9339C2.23577 12.8911 2.32567 12.8291 2.40083 12.7513L7.01001 8.14208Z"/>
</svg>
