<svg viewBox="0 0 14 14" fill="currentColor" xmlns="http://www.w3.org/2000/svg">
  <path d="M12.6306 7.50385C13.0894 7.0457 13.4393 6.49027 13.6545 5.87865C13.8696 5.26702 13.9446 4.61485 13.8737 3.97036C13.8028 3.32587 13.588 2.70556 13.245 2.15531C12.9021 1.60506 12.4398 1.13894 11.8924 0.79144C10.5058 -0.126085 8.65006 -0.132983 7.24963 0.770744C6.03546 1.55029 5.36629 2.76446 5.24901 4.02002C5.15933 4.93065 4.81439 5.77919 4.17972 6.41386L4.15902 6.43456C3.35877 7.23481 3.35877 8.45587 4.11073 9.20093L4.7937 9.8839C5.15514 10.2451 5.64521 10.448 6.15619 10.448C6.66717 10.448 7.15724 10.2451 7.51868 9.8839C8.18785 9.21473 9.07088 8.8491 10.0298 8.74562C10.9749 8.64214 11.8993 8.22822 12.6306 7.50385ZM3.04143 12.4226C3.2277 12.8089 3.16561 13.2781 2.84137 13.5954C2.70094 13.7379 2.52197 13.8364 2.32639 13.8787C2.13082 13.921 1.92715 13.9053 1.74037 13.8335C1.55359 13.7617 1.39182 13.637 1.27491 13.4746C1.158 13.3122 1.09103 13.1192 1.08221 12.9193C0.882306 12.9105 0.689324 12.8435 0.526934 12.7266C0.364544 12.6097 0.239808 12.4479 0.168027 12.2612C0.0962455 12.0744 0.0805397 11.8707 0.122836 11.6751C0.165133 11.4796 0.263593 11.3006 0.406138 11.1602C0.723477 10.8428 1.19949 10.7738 1.57891 10.9601L3.28979 9.28371C3.38637 9.41479 3.49675 9.56656 3.62092 9.69074L4.30389 10.3737C4.44876 10.5117 4.58674 10.629 4.7661 10.7324L3.04143 12.4226Z" />
</svg>
