<svg viewBox="0 0 14 14" fill="currentColor" xmlns="http://www.w3.org/2000/svg">
  <path d="M9.90039 1.5854C10.5956 1.65484 11.1396 2.23314 11.1396 2.93404L11.1328 3.07271C11.0619 3.75525 10.4732 4.28943 9.75977 4.28951C9.72311 4.28951 9.68607 4.28674 9.64941 4.28462L9.32422 4.92427C9.77919 5.21228 10.1372 5.56459 10.4326 5.90767C10.5856 6.08332 10.7237 6.25888 10.8486 6.41548L10.8789 6.45357C11.0147 6.62507 11.1293 6.76663 11.2393 6.88521C11.4119 7.07064 11.5202 7.13774 11.5938 7.15962L11.6572 7.16939C11.6977 7.16937 11.7296 7.16206 11.7686 7.13423L11.8105 7.09908C11.8504 7.062 11.8888 7.01559 11.9316 6.95552L12.0801 6.73091L12.0928 6.71236C12.192 6.55564 12.3296 6.33897 12.5107 6.16743C12.7198 5.97054 13.0046 5.81399 13.3818 5.81392C13.6686 5.81392 13.8994 6.04105 13.8994 6.32271L13.8887 6.42525C13.8405 6.65716 13.6327 6.83052 13.3818 6.83052C13.3281 6.83056 13.2897 6.8438 13.2295 6.90083L13.1699 6.96333C13.1101 7.03471 13.0474 7.13227 12.96 7.269L12.9463 7.28755C12.8471 7.44427 12.7094 7.66094 12.5283 7.83247L12.4463 7.90376C12.2465 8.06575 11.9874 8.18596 11.6572 8.18599L11.5117 8.17818C11.1818 8.14085 10.9172 7.97949 10.7021 7.79243C10.6353 7.8771 10.5596 7.96787 10.4756 8.06099C10.5058 8.152 10.5357 8.24097 10.5615 8.32564C10.5809 8.38917 10.6009 8.44896 10.6182 8.50826C10.6828 8.71557 10.7369 8.89317 10.8037 9.05611C10.8877 9.26347 10.9629 9.38202 11.0361 9.44771C11.0781 9.48578 11.1286 9.51797 11.2139 9.53169L11.3125 9.53951C11.4999 9.53938 11.6771 9.4497 12.0391 9.25923C12.3624 9.08986 12.8086 8.86184 13.3818 8.86177C13.6686 8.86177 13.8993 9.088 13.8994 9.36958C13.8994 9.65124 13.6686 9.87837 13.3818 9.87837L13.2754 9.88326C13.0309 9.90669 12.8092 10.0095 12.5264 10.1577C12.5048 10.1704 12.4808 10.1811 12.457 10.1938L12.2227 10.3149C11.9689 10.4387 11.6583 10.558 11.3125 10.5581L11.167 10.5522C10.8348 10.5243 10.5557 10.3995 10.3311 10.1938C10.0917 9.97568 9.9453 9.69158 9.8418 9.43111C9.76417 9.24051 9.69709 9.02666 9.63672 8.82759C9.28309 9.08807 8.85784 9.32761 8.36621 9.49068C8.44383 9.71938 8.54739 9.98835 8.67676 10.2573C8.83846 10.594 9.02643 10.9008 9.2334 11.1147C9.43609 11.3307 9.61314 11.4047 9.75977 11.4047C10.0465 11.4048 10.2773 11.6319 10.2773 11.9135L10.2666 12.0161C10.2185 12.248 10.0106 12.4213 9.75977 12.4213L9.56152 12.4086C9.17588 12.358 8.85555 12.164 8.59961 11.9311L8.47656 11.812C8.16391 11.4858 7.92254 11.0722 7.73926 10.6889C7.56679 10.3289 7.43528 9.97315 7.34473 9.69576C7.23273 9.70422 7.11631 9.70844 7 9.70845L6.6543 9.69576C6.56374 9.97105 6.43225 10.3289 6.25977 10.6889C6.07648 11.0722 5.83296 11.4858 5.52246 11.812L5.40039 11.9311C5.10178 12.2029 4.71474 12.4213 4.23926 12.4213C3.95276 12.4212 3.72188 12.1949 3.72168 11.9135C3.72168 11.632 3.95264 11.4049 4.23926 11.4047C4.38586 11.4047 4.56278 11.3306 4.76758 11.1147C4.97239 10.9008 5.16252 10.5939 5.32422 10.2573C5.45141 9.99051 5.55499 9.71936 5.63477 9.49068C5.14314 9.32761 4.71788 9.08807 4.36426 8.82759C4.30175 9.02657 4.23559 9.24058 4.16016 9.43111C4.05666 9.68947 3.90927 9.97356 3.66992 10.1938L3.57031 10.2768C3.32889 10.459 3.03453 10.558 2.6875 10.5581L2.51758 10.5483C2.23935 10.5179 1.98803 10.4184 1.77637 10.3159L1.54199 10.1958C1.5183 10.1831 1.49419 10.1702 1.47266 10.1596C1.18986 10.0115 0.968122 9.9086 0.723633 9.88521L0.617188 9.88033C0.330406 9.88033 0.0996094 9.6532 0.0996094 9.37154C0.0997923 9.09003 0.33052 8.86372 0.617188 8.86372C1.19071 8.86374 1.63751 9.09275 1.96094 9.26216C2.27779 9.42887 2.45271 9.51802 2.61719 9.53755L2.6875 9.54146C2.7973 9.5414 2.8659 9.51854 2.91699 9.48579L2.96289 9.45064C3.01791 9.39978 3.07587 9.32004 3.13574 9.19673L3.19629 9.05806C3.26089 8.89514 3.31722 8.71751 3.38184 8.51021C3.39909 8.45303 3.41809 8.39112 3.4375 8.32759C3.46336 8.24295 3.49328 8.15393 3.52344 8.06294C3.43943 7.96773 3.36366 7.87691 3.29688 7.79439C3.05112 8.00602 2.7405 8.18599 2.3418 8.18599L2.20508 8.17915C1.93902 8.15115 1.72404 8.04271 1.55273 7.90376L1.4707 7.83247C1.2896 7.66094 1.15191 7.44425 1.05273 7.28755L1.04004 7.269C0.952719 7.13242 0.889808 7.03471 0.830078 6.96333L0.770508 6.90083C0.725223 6.85795 0.691765 6.8397 0.655273 6.83345L0.617188 6.83052C0.330539 6.83052 0.0998225 6.60419 0.0996094 6.32271C0.0996094 6.04105 0.330406 5.81392 0.617188 5.81392C0.994421 5.81394 1.27915 5.97055 1.48828 6.16743C1.66941 6.33897 1.80706 6.55564 1.90625 6.71236L1.91992 6.73091C2.03632 6.91298 2.10969 7.02497 2.18945 7.09908C2.24971 7.15614 2.28805 7.16934 2.3418 7.16939C2.39513 7.16939 2.47415 7.1491 2.60742 7.03462L2.76074 6.88521C2.87056 6.76673 2.98448 6.62484 3.12012 6.45357L3.15039 6.41548L3.56641 5.90767C3.86394 5.56462 4.21989 5.21227 4.6748 4.92427L4.34961 4.28462C4.31295 4.28674 4.27591 4.28951 4.23926 4.28951C3.52597 4.28933 2.93814 3.75515 2.86719 3.07271L2.85938 2.93404C2.85938 2.18659 3.47826 1.57875 4.23926 1.57857C5.00041 1.57857 5.61914 2.18647 5.61914 2.93404L5.61328 3.06099C5.5856 3.35452 5.46312 3.62197 5.27441 3.82954L5.61133 4.49068C6.01449 4.36366 6.47183 4.28951 7 4.28951L7.38281 4.30318C7.63008 4.32104 7.86072 4.35608 8.07617 4.40572L8.38867 4.49068L8.72461 3.82954C8.53595 3.62198 8.41342 3.35449 8.38574 3.06099L8.37988 2.93404C8.37988 2.18647 8.99861 1.57857 9.75977 1.57857L9.90039 1.5854ZM7 5.28951C6.56742 5.28951 6.21131 5.34921 5.91113 5.4438L5.54004 5.56001L5.20996 5.76997C4.86694 5.98717 4.58366 6.26157 4.32227 6.56294L4.32129 6.56392C4.19279 6.71145 4.07631 6.85834 3.95215 7.01411L4.07422 7.16548C4.13571 7.24146 4.20191 7.32075 4.27344 7.40181L4.56738 7.73482L4.95801 8.0229C5.23994 8.23052 5.5719 8.41628 5.94922 8.54146L6.33398 8.66841L6.72949 8.69868C6.81523 8.70516 6.90734 8.70845 7 8.70845C7.09252 8.70844 7.18391 8.70515 7.26953 8.69868L7.66602 8.66841L8.05176 8.54146C8.42934 8.41622 8.76188 8.23068 9.04395 8.0229L9.39746 7.76118L9.7334 7.39107C9.79985 7.31743 9.86093 7.24336 9.91699 7.17232L10.0439 7.01021C9.921 6.85594 9.80608 6.71017 9.67871 6.56392L9.6748 6.56001C9.41883 6.26273 9.13343 5.988 8.78906 5.76997L8.46094 5.56197L8.08594 5.4438C7.78966 5.34996 7.43309 5.28954 7 5.28951ZM4.23926 2.57857C4.01351 2.57875 3.85938 2.75576 3.85938 2.93404C3.85944 3.11228 4.01356 3.28932 4.23926 3.28951C4.23926 3.2895 4.24273 3.28888 4.25098 3.28853C4.26091 3.2881 4.27246 3.2877 4.29199 3.28658L4.42383 3.27876L4.53516 3.15669C4.58738 3.09903 4.61911 3.0219 4.61914 2.93404C4.61914 2.75567 4.46519 2.57857 4.23926 2.57857ZM9.75977 2.57857C9.53383 2.57857 9.37988 2.75567 9.37988 2.93404C9.37991 3.0221 9.41241 3.09899 9.46484 3.15669L9.5752 3.27876L9.70703 3.28658C9.72656 3.2877 9.73812 3.2881 9.74805 3.28853C9.75644 3.28889 9.75977 3.2895 9.75977 3.28951C9.98557 3.28942 10.1396 3.11233 10.1396 2.93404C10.1396 2.75571 9.98562 2.57865 9.75977 2.57857Z"/>
</svg>
