<svg viewBox="0 0 14 14" fill="currentColor" xmlns="http://www.w3.org/2000/svg">
  <path d="M6.9541 10.4482C7.38259 10.4482 7.79362 10.6243 8.09668 10.9385C8.39977 11.2528 8.57031 11.6795 8.57031 12.124C8.57031 12.5686 8.39977 12.9952 8.09668 13.3096C7.79362 13.6237 7.38259 13.7998 6.9541 13.7998C6.52561 13.7998 6.11457 13.6237 5.81152 13.3096C5.50844 12.9952 5.33789 12.5686 5.33789 12.124C5.33789 11.6795 5.50844 11.2528 5.81152 10.9385C6.11457 10.6243 6.52561 10.4483 6.9541 10.4482ZM6.97754 0.200195C9.04375 0.200254 11.1855 1.63325 11.1855 3.93457C11.1855 5.26699 10.4226 6.34507 9.43359 6.97363C9.42738 6.97757 9.42033 6.98056 9.41406 6.98438L8.14355 7.77246V8.34375C8.14352 8.666 8.02049 8.97526 7.80078 9.20312C7.58114 9.43085 7.28322 9.55849 6.97266 9.55859C6.66191 9.55859 6.36329 9.43101 6.14355 9.20312C5.92385 8.97526 5.80082 8.666 5.80078 8.34375V7.08496C5.80078 7.07783 5.80164 7.07058 5.80176 7.06348C5.80219 7.03709 5.80357 7.01076 5.80566 6.98438C5.80738 6.9627 5.8097 6.94126 5.8125 6.91992C5.81421 6.90692 5.81526 6.89383 5.81738 6.88086C5.82135 6.85653 5.82571 6.83241 5.83105 6.80859C5.83258 6.80181 5.8343 6.79485 5.83594 6.78809C5.83895 6.77563 5.84232 6.76329 5.8457 6.75098C5.84976 6.73624 5.85382 6.72154 5.8584 6.70703C5.86621 6.68219 5.87547 6.65794 5.88477 6.63379C5.8902 6.61971 5.89544 6.60561 5.90137 6.5918C5.91141 6.56829 5.92217 6.54519 5.93359 6.52246C5.93839 6.51296 5.94321 6.50349 5.94824 6.49414C5.96233 6.46784 5.97726 6.4421 5.99316 6.41699C5.99772 6.40982 6.00214 6.40257 6.00684 6.39551C6.04526 6.33755 6.08912 6.2837 6.13672 6.2334C6.14211 6.22771 6.14685 6.2214 6.15234 6.21582C6.17384 6.19398 6.19659 6.17345 6.21973 6.15332C6.2246 6.14908 6.22943 6.14479 6.23438 6.14062C6.25832 6.12047 6.28304 6.10123 6.30859 6.08301C6.31432 6.07892 6.32037 6.07528 6.32617 6.07129C6.3408 6.06125 6.35501 6.0504 6.37012 6.04102L8.2168 4.89453C8.21879 4.89329 8.22066 4.89185 8.22266 4.89062C8.67315 4.59948 8.84274 4.23166 8.84277 3.93457C8.84277 3.45353 8.26472 2.63091 6.97754 2.63086C6.43619 2.63086 5.9718 2.79844 5.64453 3.03809C5.32938 3.2694 5.17318 3.53836 5.12793 3.77051C5.06102 4.08072 4.87915 4.35132 4.62207 4.52441C4.36495 4.6975 4.05243 4.75923 3.75195 4.69629C3.45156 4.63328 3.18679 4.45049 3.01465 4.1875C2.84256 3.92447 2.77657 3.60188 2.83105 3.28906C3.01449 2.34548 3.57871 1.57554 4.29297 1.05176C5.0364 0.507006 5.97876 0.200195 6.97754 0.200195Z" />
</svg>
