<svg viewBox="0 0 14 14" fill="currentColor" xmlns="http://www.w3.org/2000/svg">
  <path d="M6.99961 0.0999985C3.20461 0.0999985 0.0996094 2.86 0.0996094 6.23333C0.0996094 7.84333 0.78961 9.37667 2.03161 10.45C2.03161 10.91 1.75561 12.1367 0.0996094 13.9C0.0996094 13.9 2.51461 13.9 4.58461 11.9833C5.34361 12.2133 6.17161 12.3667 6.99961 12.3667C10.7946 12.3667 13.8996 9.60667 13.8996 6.23333C13.8996 2.86 10.7946 0.0999985 6.99961 0.0999985ZM7.68961 9.3H6.30961V7.76667H7.68961V9.3ZM8.93161 5.46666C8.72461 5.77333 8.44861 5.92667 8.17261 6.08C7.96561 6.23333 7.89661 6.31 7.82761 6.46333C7.68961 6.61667 7.68961 6.77 7.68961 7H6.30961C6.30961 6.61667 6.37861 6.38666 6.51661 6.15666C6.65461 6.00333 6.93061 5.77333 7.27561 5.54333C7.48261 5.46667 7.62061 5.31333 7.68961 5.16C7.75861 5.00667 7.82761 4.77666 7.82761 4.62333C7.82761 4.39333 7.75861 4.24 7.62061 4.08666C7.48261 3.93333 7.27561 3.85667 7.06861 3.85667C6.86161 3.85667 6.72361 3.93333 6.58561 4.01C6.44761 4.08667 6.37861 4.24 6.37861 4.47H4.99861C5.06761 3.93333 5.27461 3.47333 5.61961 3.16667C5.96461 2.86 6.44761 2.78333 7.06861 2.78333C7.68961 2.78333 8.24161 2.93666 8.58661 3.24333C8.93161 3.55 9.13861 4.01 9.13861 4.54667C9.20761 4.85333 9.13861 5.16 8.93161 5.46666Z"/>
</svg>
