<svg viewBox="0 0 14 14" fill="currentColor" xmlns="http://www.w3.org/2000/svg">
  <path d="M0.513609 4.7H1.47961C1.55551 4.7 1.61761 4.63531 1.61761 4.55625V1.39375H4.65361C4.72951 1.39375 4.79161 1.32906 4.79161 1.25V0.243748C4.79161 0.164686 4.72951 0.0999985 4.65361 0.0999985H1.54861C0.900009 0.0999985 0.375609 0.646248 0.375609 1.32187V4.55625C0.375609 4.63531 0.437709 4.7 0.513609 4.7ZM9.34561 1.39375H12.3816V4.55625C12.3816 4.63531 12.4437 4.7 12.5196 4.7H13.4856C13.5615 4.7 13.6236 4.63531 13.6236 4.55625V1.32187C13.6236 0.646248 13.0992 0.0999985 12.4506 0.0999985H9.34561C9.26971 0.0999985 9.20761 0.164686 9.20761 0.243748V1.25C9.20761 1.32906 9.26971 1.39375 9.34561 1.39375ZM4.65361 12.6062H1.61761V9.44375C1.61761 9.36469 1.55551 9.3 1.47961 9.3H0.513609C0.437709 9.3 0.375609 9.36469 0.375609 9.44375V12.6781C0.375609 13.3537 0.900009 13.9 1.54861 13.9H4.65361C4.72951 13.9 4.79161 13.8353 4.79161 13.7562V12.75C4.79161 12.6709 4.72951 12.6062 4.65361 12.6062ZM13.4856 9.3H12.5196C12.4437 9.3 12.3816 9.36469 12.3816 9.44375V12.6062H9.34561C9.26971 12.6062 9.20761 12.6709 9.20761 12.75V13.7562C9.20761 13.8353 9.26971 13.9 9.34561 13.9H12.4506C13.0992 13.9 13.6236 13.3537 13.6236 12.6781V9.44375C13.6236 9.36469 13.5615 9.3 13.4856 9.3ZM13.7616 6.35312H0.237609C0.161709 6.35312 0.0996094 6.41781 0.0996094 6.49687V7.50312C0.0996094 7.58219 0.161709 7.64687 0.237609 7.64687H13.7616C13.8375 7.64687 13.8996 7.58219 13.8996 7.50312V6.49687C13.8996 6.41781 13.8375 6.35312 13.7616 6.35312Z"/>
</svg>
