<svg viewBox="0 0 33 33" fill="currentColor" xmlns="http://www.w3.org/2000/svg">
<path d="M29.1671 6.00002C29.1673 6.91267 28.8999 7.80536 28.3981 8.56761C27.8962 9.32987 27.1818 9.92823 26.3433 10.2887C25.5049 10.6491 24.5791 10.7557 23.6806 10.5954C22.7822 10.4351 21.9505 10.0148 21.2884 9.38668L11.7071 14.9173C11.8768 15.6291 11.8768 16.3709 11.7071 17.0827L21.2884 22.6147C22.102 21.8436 23.166 21.3911 24.2858 21.34C25.4056 21.2889 26.5063 21.6426 27.3868 22.3363C28.2673 23.0301 28.8686 24.0176 29.0808 25.1183C29.293 26.219 29.102 27.3593 28.5426 28.3307C27.9832 29.3021 27.0928 30.0397 26.0343 30.4086C24.9757 30.7775 23.8198 30.753 22.7778 30.3397C21.7359 29.9264 20.8775 29.1518 20.3596 28.1576C19.8418 27.1634 19.6991 26.0161 19.9577 24.9254L10.3724 19.392C9.70977 20.0184 8.87817 20.4369 7.98033 20.5959C7.0825 20.7548 6.15776 20.6473 5.32035 20.2866C4.48295 19.9258 3.76957 19.3277 3.26834 18.566C2.76711 17.8043 2.5 16.9125 2.5 16.0007C2.5 15.0889 2.76711 14.1971 3.26834 13.4354C3.76957 12.6737 4.48295 12.0755 5.32035 11.7148C6.15776 11.354 7.0825 11.2465 7.98033 11.4055C8.87817 11.5645 9.70977 11.983 10.3724 12.6094L19.9591 7.07468C19.8075 6.43391 19.7932 5.76831 19.9172 5.12164C20.0412 4.47496 20.3006 3.86184 20.6785 3.32258C21.0563 2.78331 21.544 2.33011 22.1095 1.99276C22.6749 1.6554 23.3054 1.44153 23.9594 1.3652C24.6134 1.28887 25.2762 1.35181 25.9042 1.54988C26.5321 1.74795 27.1111 2.07666 27.6029 2.51443C28.0948 2.95219 28.4884 3.48908 28.758 4.08982C29.0276 4.69057 29.167 5.34156 29.1671 6.00002Z"/>
</svg>
